<?xml version="1.0" standalone="no"?>
<!DOCTYPE svg PUBLIC "-//W3C//DTD SVG 20010904//EN"
 "http://www.w3.org/TR/2001/REC-SVG-20010904/DTD/svg10.dtd">
<svg version="1.0" xmlns="http://www.w3.org/2000/svg"
 width="253.000000pt" height="199.000000pt" viewBox="0 0 253.000000 199.000000"
 preserveAspectRatio="xMidYMid meet">
<g transform="translate(0.000000,199.000000) scale(0.100000,-0.100000)"
fill="#000000" stroke="none">
<path fill="#FFFFFF" d="M945 1976 c-46 -21 -932 -915 -940 -949 -18 -71 -20 -68 460 -548
250 -250 468 -460 483 -466 30 -14 86 -8 115 12 62 43 74 119 29 181 -16 21
-169 176 -340 343 -172 167 -312 308 -312 312 0 5 451 9 1003 9 976 0 1003 1
1034 20 66 40 66 155 0 204 -28 21 -33 21 -1039 26 l-1010 5 317 310 c175 171
331 328 347 349 18 26 28 51 28 75 0 88 -98 153 -175 117z"/>
</g>
</svg>